<svg width="960" height="640" viewBox="0 0 960 640" fill="none" xmlns="http://www.w3.org/2000/svg">
  <defs>
    <linearGradient id="sky" x1="0" y1="0" x2="0" y2="1">
      <stop offset="0%" stop-color="#e8f6ff"/>
      <stop offset="100%" stop-color="#cce7ff"/>
    </linearGradient>
    <linearGradient id="sea" x1="0" y1="0" x2="1" y2="0">
      <stop offset="0%" stop-color="#a8d8ff"/>
      <stop offset="100%" stop-color="#7cc4f8"/>
    </linearGradient>
    <linearGradient id="path" x1="0" y1="0" x2="1" y2="0">
      <stop offset="0%" stop-color="#6fb8ff"/>
      <stop offset="100%" stop-color="#4ea3ff"/>
    </linearGradient>
    <linearGradient id="glass" x1="0" y1="0" x2="0" y2="1">
      <stop offset="0%" stop-color="#ffffff" stop-opacity="0.65"/>
      <stop offset="100%" stop-color="#f3fbff" stop-opacity="0.9"/>
    </linearGradient>
  </defs>
  <rect width="960" height="640" rx="32" fill="url(#sky)"/>
  <path d="M0 360C96 340 192 300 288 300C384 300 480 340 576 332C672 324 768 260 864 248C928 240 960 250 960 250V640H0V360Z" fill="url(#sea)"/>
  <path d="M80 520C176 500 288 460 392 462C496 464 584 508 680 514C776 520 872 490 960 470V640H0V520Z" fill="#b4e0ff" opacity="0.55"/>
  <circle cx="760" cy="120" r="56" fill="#fff7d6" stroke="#f7d76a" stroke-width="6"/>
  <path d="M680 186C718 166 748 162 776 172C804 182 828 206 842 240" stroke="#8ad1ff" stroke-width="10" stroke-linecap="round" stroke-dasharray="12 16"/>
  <path d="M610 150L718 110L726 134L676 152L652 198L626 194L610 150Z" fill="#f4fbff" stroke="#6aa7ff" stroke-width="6" stroke-linejoin="round"/>
  <path d="M260 160C300 126 360 114 408 126C456 138 502 174 536 210C564 240 582 270 586 302C590 334 572 370 530 388C492 404 440 404 400 380C362 356 344 308 312 278C280 248 232 232 214 212C196 192 220 182 260 160Z" fill="#ffffff" stroke="#97cfff" stroke-width="6"/>
  <rect x="140" y="300" width="100" height="140" rx="12" fill="url(#glass)" stroke="#b9ddff" stroke-width="5"/>
  <rect x="272" y="272" width="96" height="168" rx="14" fill="url(#glass)" stroke="#b9ddff" stroke-width="5"/>
  <rect x="408" y="296" width="92" height="144" rx="14" fill="url(#glass)" stroke="#b9ddff" stroke-width="5"/>
  <path d="M144 438H624" stroke="url(#path)" stroke-width="12" stroke-linecap="round"/>
  <circle cx="196" cy="358" r="10" fill="#6fb8ff"/>
  <circle cx="326" cy="330" r="10" fill="#6fb8ff"/>
  <circle cx="452" cy="354" r="10" fill="#6fb8ff"/>
  <rect x="560" y="254" width="112" height="64" rx="18" fill="#fdfefe" stroke="#9acffe" stroke-width="6"/>
  <path d="M574 276H642" stroke="#8bc4ff" stroke-width="8" stroke-linecap="round"/>
  <path d="M574 298H654" stroke="#8bc4ff" stroke-width="8" stroke-linecap="round"/>
  <path d="M712 288C736 274 778 268 810 280C842 292 862 320 870 350C878 382 872 416 854 438C836 460 808 470 778 470C748 470 716 458 694 438C672 418 654 390 660 362C666 334 688 302 712 288Z" fill="#ffffff" stroke="#97cfff" stroke-width="6"/>
  <circle cx="722" cy="340" r="10" fill="#6fb8ff"/>
  <circle cx="756" cy="362" r="10" fill="#6fb8ff"/>
  <circle cx="788" cy="340" r="10" fill="#6fb8ff"/>
</svg>
