<svg width="320" height="360" viewBox="0 0 320 360" fill="none" xmlns="http://www.w3.org/2000/svg">
  <rect width="320" height="360" rx="32" fill="#ffffff"/>
  <ellipse cx="160" cy="270" rx="52" ry="12" fill="#d9d9d9"/>
  <path d="M92 134C92 103.49 117.49 78 148 78H172C202.51 78 228 103.49 228 134V186C228 218.137 202.137 244 170 244H150C117.863 244 92 218.137 92 186V134Z" fill="#ffffff" stroke="#0B498F" stroke-width="6"/>
  <path d="M118 126C118 113.85 127.85 104 140 104H180C192.15 104 202 113.85 202 126C202 141.464 189.464 154 174 154H146C130.536 154 118 141.464 118 126Z" fill="#ffffff"/>
  <path d="M120 132C120 108.385 139.385 89 163 89H168C191.615 89 211 108.385 211 132V140C211 164.091 191.091 184 167 184H164C139.909 184 120 164.091 120 140V132Z" fill="#ffffff"/>
  <circle cx="136" cy="146" r="10" fill="#C1E3FF"/>
  <circle cx="184" cy="146" r="10" fill="#C1E3FF"/>
  <circle cx="146" cy="154" r="6" fill="#0B498F"/>
  <circle cx="174" cy="154" r="6" fill="#0B498F"/>
  <path d="M158 162C158 164.209 160.686 166 164 166C167.314 166 170 164.209 170 162" stroke="#0B498F" stroke-width="4" stroke-linecap="round"/>
  <path d="M132 116C132 110.477 136.477 106 142 106" stroke="#0B498F" stroke-width="6" stroke-linecap="round"/>
  <path d="M188 106C193.523 106 198 110.477 198 116" stroke="#0B498F" stroke-width="6" stroke-linecap="round"/>
  <path d="M152 190L128 214" stroke="#0B498F" stroke-width="10" stroke-linecap="round"/>
  <path d="M168 190L192 214" stroke="#0B498F" stroke-width="10" stroke-linecap="round"/>
  <path d="M120 188C112 198.667 102.5 226.8 132 226.8C161.5 226.8 154 198.667 148 188" fill="#0B498F"/>
  <path d="M200 188C208 198.667 217.5 226.8 188 226.8C158.5 226.8 166 198.667 172 188" fill="#0B498F"/>
  <path d="M124 196C132.8 205.6 144.667 214 164 214C183.333 214 195.2 205.6 204 196" stroke="#0B498F" stroke-width="12" stroke-linecap="round"/>
  <path d="M126 196C134.8 189.6 147.333 184 164 184C180.667 184 193.2 189.6 202 196" stroke="#0B498F" stroke-width="12" stroke-linecap="round"/>
  <path d="M154 210C154 205.582 157.582 202 162 202H168C172.418 202 176 205.582 176 210V216H154V210Z" fill="#ffffff" stroke="#0B498F" stroke-width="6"/>
  <path d="M126 200C130 204 130 210 124 216C120 220 112 220 108 216L92 200C88 196 88 190 92 186C96 182 102 182 106 186L126 200Z" fill="#ffffff" stroke="#0B498F" stroke-width="6"/>
  <path d="M194 200C190 204 190 210 196 216C200 220 208 220 212 216L228 200C232 196 232 190 228 186C224 182 218 182 214 186L194 200Z" fill="#ffffff" stroke="#0B498F" stroke-width="6"/>
  <path d="M142 238C139.5 247.5 136 274 148 278C160 282 168 254 172 238" stroke="#0B498F" stroke-width="8" stroke-linecap="round"/>
  <path d="M168 238C170.5 247.5 174 274 162 278C150 282 142 254 138 238" stroke="#0B498F" stroke-width="8" stroke-linecap="round"/>
  <path d="M92 210C78 218 62 248 80 258C102 270 122 238 132 224" stroke="#0B498F" stroke-width="8" stroke-linecap="round"/>
  <path d="M228 210C242 218 258 248 240 258C218 270 198 238 188 224" stroke="#0B498F" stroke-width="8" stroke-linecap="round"/>
  <rect x="98" y="126" width="10" height="24" rx="5" transform="rotate(-30 98 126)" fill="#0B498F"/>
  <rect x="208" y="116" width="10" height="24" rx="5" transform="rotate(30 208 116)" fill="#0B498F"/>
  <path d="M216 232C234 232 252 242 252 258C252 268 244 274 232 274H204L216 232Z" fill="#A8C86E" stroke="#0B498F" stroke-width="6"/>
  <circle cx="214" cy="248" r="6" fill="#0B498F"/>
  <path d="M92 252H120L106 282H78C64 282 60 268 68 258C74 250 82 252 92 252Z" fill="#F3E3AA" stroke="#0B498F" stroke-width="6"/>
  <path d="M86 246L114 246" stroke="#0B498F" stroke-width="8" stroke-linecap="round"/>
  <path d="M86 258L114 258" stroke="#0B498F" stroke-width="8" stroke-linecap="round"/>
  <path d="M98 232L118 226" stroke="#0B498F" stroke-width="6" stroke-linecap="round"/>
  <path d="M232 224C236.418 224 240 227.582 240 232V270C240 274.418 236.418 278 232 278H210C205.582 278 202 274.418 202 270C202 265.582 205.582 262 210 262H224V232C224 227.582 227.582 224 232 224Z" fill="#0B498F"/>
  <path d="M200 240C200 230.059 208.059 222 218 222C227.941 222 236 230.059 236 240H200Z" fill="#A8C86E" stroke="#0B498F" stroke-width="6"/>
  <path d="M130 94C130 80.7452 140.745 70 154 70H166C179.255 70 190 80.7452 190 94" stroke="#0B498F" stroke-width="6" stroke-linecap="round"/>
  <path d="M122 82C122 76.4772 126.477 72 132 72" stroke="#0B498F" stroke-width="6" stroke-linecap="round"/>
  <path d="M198 72C203.523 72 208 76.4772 208 82" stroke="#0B498F" stroke-width="6" stroke-linecap="round"/>
  <path d="M122 302H198" stroke="#0B498F" stroke-width="10" stroke-linecap="round"/>
  <path d="M134 314H210" stroke="#0B498F" stroke-width="10" stroke-linecap="round"/>
  <path d="M90 328H166" stroke="#0B498F" stroke-width="10" stroke-linecap="round"/>
  <text x="160" y="346" fill="#0B498F" font-family="Arial, sans-serif" font-size="24" font-weight="700" text-anchor="middle">SOL</text>
</svg>
