<svg width="512" height="512" viewBox="0 0 512 512" fill="none" xmlns="http://www.w3.org/2000/svg">
  <!-- Background -->
  <rect width="512" height="512" rx="64" fill="#0066cc"/>

  <!-- Refresh Symbol (Circular Arrows) -->
  <g transform="translate(256, 256)">
    <!-- Arrow 1 (Top Right) -->
    <path d="M 50,0 A 50,50 0 0,1 0,50 L 0,30 A 30,30 0 0,0 30,0 Z" fill="white" opacity="0.9"/>
    <path d="M 55,-5 L 50,0 L 55,5 L 60,0 Z" fill="white" opacity="0.9"/>

    <!-- Arrow 2 (Bottom Left) -->
    <path d="M -50,0 A 50,50 0 0,1 0,-50 L 0,-30 A 30,30 0 0,0 -30,0 Z" fill="white" opacity="0.9"/>
    <path d="M -55,5 L -50,0 L -55,-5 L -60,0 Z" fill="white" opacity="0.9"/>
  </g>

  <!-- Plus Symbol -->
  <g transform="translate(256, 380)">
    <rect x="-40" y="-8" width="80" height="16" rx="8" fill="white"/>
    <rect x="-8" y="-40" width="16" height="80" rx="8" fill="white"/>
  </g>

  <!-- Text "R+" -->
  <text x="256" y="150" font-family="Arial, sans-serif" font-size="120" font-weight="bold" fill="white" text-anchor="middle">R+</text>
</svg>
